<svg xmlns="http://www.w3.org/2000/svg" width="40" height="40" viewBox="0 0 40 40" fill="none">
<path d="M38.3327 31.6667C38.3327 32.5507 37.9815 33.3986 37.3564 34.0237C36.7312 34.6488 35.8834 35 34.9993 35H4.99935C4.11529 35 3.26745 34.6488 2.64233 34.0237C2.01721 33.3986 1.66602 32.5507 1.66602 31.6667V13.3333C1.66602 12.4493 2.01721 11.6014 2.64233 10.9763C3.26745 10.3512 4.11529 10 4.99935 10H11.666L14.9993 5H24.9993L28.3327 10H34.9993C35.8834 10 36.7312 10.3512 37.3564 10.9763C37.9815 11.6014 38.3327 12.4493 38.3327 13.3333V31.6667Z" stroke="#668CAE" stroke-width="1.2" stroke-linecap="round" stroke-linejoin="round"/>
<path d="M20.0007 28.3333C23.6825 28.3333 26.6673 25.3486 26.6673 21.6667C26.6673 17.9848 23.6825 15 20.0007 15C16.3188 15 13.334 17.9848 13.334 21.6667C13.334 25.3486 16.3188 28.3333 20.0007 28.3333Z" stroke="#668CAE" stroke-width="1.2" stroke-linecap="round" stroke-linejoin="round"/>
</svg>